<svg width="312" height="276" viewBox="0 0 312 276" fill="none" xmlns="http://www.w3.org/2000/svg">
<path d="M87.9309 85.0437H284.483C299.242 85.0437 311.207 97.0085 311.207 111.768V111.768C311.207 126.527 299.242 138.492 284.483 138.492H87.9309V85.0437Z" fill="#D9D9D9"/>
<path d="M66.3792 222.113H195.69C210.449 222.113 222.414 234.077 222.414 248.837V248.837C222.414 263.596 210.449 275.561 195.69 275.561H66.3792V222.113Z" fill="#D9D9D9"/>
<path d="M26.9897 107.092L60.5928 24.7433C66.1691 11.0779 81.7676 4.52043 95.4329 10.0967V10.0967C109.098 15.673 115.656 31.2715 110.08 44.9369L76.4765 127.285L26.9897 107.092Z" fill="#D9D9D9"/>
<path d="M66.3792 175.561H206.896C221.656 175.561 233.621 187.526 233.621 202.285V202.285C233.621 217.044 221.656 229.009 206.896 229.009H66.3792V175.561Z" fill="#D9D9D9"/>
<path d="M66.3792 133.32H219.827C234.587 133.32 246.552 145.284 246.552 160.044V160.044C246.552 174.803 234.587 186.768 219.828 186.768H66.3792V133.32Z" fill="#D9D9D9"/>
<path d="M21.5516 118.389C21.5516 95.745 39.908 77.3887 62.5516 77.3887H93.9655V234.285H47.5516C33.1922 234.285 21.5516 222.645 21.5516 208.285V118.389Z" fill="#D9D9D9"/>
<path d="M21.5516 214.458H70.6896V275.561H37.5516C28.7151 275.561 21.5516 268.397 21.5516 259.561V214.458Z" fill="#D9D9D9"/>
<path d="M0 147.147C0 132.235 12.0883 120.147 27 120.147H43.1034V253.388H24C10.7452 253.388 0 242.643 0 229.388V147.147Z" fill="#D9D9D9"/>
</svg>
