<svg width="20" height="19" viewBox="0 0 20 19" fill="none" xmlns="http://www.w3.org/2000/svg">
<path d="M10.0001 18.35L8.55012 17.05C6.86679 15.5333 5.47512 14.225 4.37512 13.125C3.27512 12.025 2.40012 11.0375 1.75012 10.1625C1.10012 9.2875 0.645955 8.48333 0.387622 7.75C0.129289 7.01667 0.00012207 6.26667 0.00012207 5.5C0.00012207 3.93333 0.525122 2.625 1.57512 1.575C2.62512 0.525 3.93346 0 5.50012 0C6.36679 0 7.19179 0.183333 7.97512 0.55C8.75846 0.916667 9.43346 1.43333 10.0001 2.1C10.5668 1.43333 11.2418 0.916667 12.0251 0.55C12.8085 0.183333 13.6335 0 14.5001 0C16.0668 0 17.3751 0.525 18.4251 1.575C19.4751 2.625 20.0001 3.93333 20.0001 5.5C20.0001 6.26667 19.871 7.01667 19.6126 7.75C19.3543 8.48333 18.9001 9.2875 18.2501 10.1625C17.6001 11.0375 16.7251 12.025 15.6251 13.125C14.5251 14.225 13.1335 15.5333 11.4501 17.05L10.0001 18.35V18.35M10.0001 15.65C11.6001 14.2167 12.9168 12.9875 13.9501 11.9625C14.9835 10.9375 15.8001 10.0458 16.4001 9.2875C17.0001 8.52917 17.4168 7.85417 17.6501 7.2625C17.8835 6.67083 18.0001 6.08333 18.0001 5.5C18.0001 4.5 17.6668 3.66667 17.0001 3C16.3335 2.33333 15.5001 2 14.5001 2C13.7168 2 12.9918 2.22083 12.3251 2.6625C11.6585 3.10417 11.2001 3.66667 10.9501 4.35V4.35H9.05012V4.35C8.80012 3.66667 8.34179 3.10417 7.67512 2.6625C7.00846 2.22083 6.28346 2 5.50012 2C4.50012 2 3.66679 2.33333 3.00012 3C2.33346 3.66667 2.00012 4.5 2.00012 5.5C2.00012 6.08333 2.11679 6.67083 2.35012 7.2625C2.58346 7.85417 3.00012 8.52917 3.60012 9.2875C4.20012 10.0458 5.01679 10.9375 6.05012 11.9625C7.08346 12.9875 8.40012 14.2167 10.0001 15.65V15.65M10.0001 8.825V8.825V8.825V8.825V8.825V8.825V8.825V8.825V8.825V8.825V8.825V8.825V8.825V8.825V8.825V8.825V8.825V8.825V8.825V8.825V8.825" fill="#BBC9CF"/>
</svg>
