<svg width="20" height="20" viewBox="0 0 20 20" fill="none" xmlns="http://www.w3.org/2000/svg">
<path d="M10.5001 13C11.2001 13 11.7918 12.7583 12.2751 12.275C12.7585 11.7917 13.0001 11.2 13.0001 10.5V5H16.0001V3H12.0001V8.5C11.7835 8.33333 11.5501 8.20833 11.3001 8.125C11.0501 8.04167 10.7835 8 10.5001 8C9.80012 8 9.20846 8.24167 8.72512 8.725C8.24179 9.20833 8.00012 9.8 8.00012 10.5C8.00012 11.2 8.24179 11.7917 8.72512 12.275C9.20846 12.7583 9.80012 13 10.5001 13V13M6.00012 16C5.45012 16 4.97929 15.8042 4.58762 15.4125C4.19596 15.0208 4.00012 14.55 4.00012 14V2C4.00012 1.45 4.19596 0.979167 4.58762 0.5875C4.97929 0.195833 5.45012 0 6.00012 0H18.0001C18.5501 0 19.021 0.195833 19.4126 0.5875C19.8043 0.979167 20.0001 1.45 20.0001 2V14C20.0001 14.55 19.8043 15.0208 19.4126 15.4125C19.021 15.8042 18.5501 16 18.0001 16H6.00012V16M6.00012 14H18.0001V14V14V2V2V2H6.00012V2V2V14V14V14V14M2.00012 20C1.45012 20 0.979289 19.8042 0.587622 19.4125C0.195955 19.0208 0.00012207 18.55 0.00012207 18V4H2.00012V18V18V18H16.0001V20H2.00012V20M6.00012 2V2V2V2V14V14V14V14V14V14V2V2V2V2" fill="#BBC9CF"/>
</svg>
