<svg width="18" height="18" viewBox="0 0 18 18" fill="none" xmlns="http://www.w3.org/2000/svg">
<path d="M16.5999 18L10.2999 11.7C9.79994 12.1 9.22494 12.4167 8.57494 12.65C7.92494 12.8833 7.23327 13 6.49994 13C4.68327 13 3.14577 12.3708 1.88744 11.1125C0.629106 9.85417 -6.10352e-05 8.31667 -6.10352e-05 6.5C-6.10352e-05 4.68333 0.629106 3.14583 1.88744 1.8875C3.14577 0.629167 4.68327 0 6.49994 0C8.31661 0 9.85411 0.629167 11.1124 1.8875C12.3708 3.14583 12.9999 4.68333 12.9999 6.5C12.9999 7.23333 12.8833 7.925 12.6499 8.575C12.4166 9.225 12.0999 9.8 11.6999 10.3L17.9999 16.6L16.5999 18V18M6.49994 11C7.74994 11 8.81244 10.5625 9.68744 9.6875C10.5624 8.8125 10.9999 7.75 10.9999 6.5C10.9999 5.25 10.5624 4.1875 9.68744 3.3125C8.81244 2.4375 7.74994 2 6.49994 2C5.24994 2 4.18744 2.4375 3.31244 3.3125C2.43744 4.1875 1.99994 5.25 1.99994 6.5C1.99994 7.75 2.43744 8.8125 3.31244 9.6875C4.18744 10.5625 5.24994 11 6.49994 11V11" fill="#BBC9CF"/>
</svg>
