<svg width="312" height="276" viewBox="0 0 312 276" fill="none" xmlns="http://www.w3.org/2000/svg">
<path d="M223.276 85.0437H26.7241C11.9648 85.0437 0 97.0085 0 111.768V111.768C0 126.527 11.9648 138.492 26.7241 138.492H223.276V85.0437Z" fill="#D9D9D9"/>
<path d="M244.828 222.113H115.517C100.758 222.113 88.7931 234.077 88.7931 248.837V248.837C88.7931 263.596 100.758 275.561 115.517 275.561H244.828V222.113Z" fill="#D9D9D9"/>
<path d="M284.217 107.092L250.614 24.7433C245.038 11.0779 229.439 4.52043 215.774 10.0967V10.0967C202.108 15.673 195.551 31.2715 201.127 44.9369L234.73 127.285L284.217 107.092Z" fill="#D9D9D9"/>
<path d="M244.828 175.561H104.31C89.551 175.561 77.5862 187.526 77.5862 202.285V202.285C77.5862 217.044 89.551 229.009 104.31 229.009H244.828V175.561Z" fill="#D9D9D9"/>
<path d="M244.828 133.32H91.3793C76.62 133.32 64.6552 145.284 64.6552 160.044V160.044C64.6552 174.803 76.6199 186.768 91.3793 186.768H244.828V133.32Z" fill="#D9D9D9"/>
<path d="M289.655 118.389C289.655 95.745 271.299 77.3887 248.655 77.3887H217.241V234.285H263.655C278.015 234.285 289.655 222.645 289.655 208.285V118.389Z" fill="#D9D9D9"/>
<path d="M289.655 214.458H240.517V275.561H273.655C282.492 275.561 289.655 268.397 289.655 259.561V214.458Z" fill="#D9D9D9"/>
<path d="M311.207 147.147C311.207 132.235 299.118 120.147 284.207 120.147H268.103V253.388H287.207C300.462 253.388 311.207 242.643 311.207 229.388V147.147Z" fill="#D9D9D9"/>
</svg>
