<svg width="411" height="752" viewBox="0 0 411 752" fill="none" xmlns="http://www.w3.org/2000/svg">
<path fill-rule="evenodd" clip-rule="evenodd" d="M320.777 558.045L324.243 556.418C379.143 492.769 372.744 446.724 302.428 361.358C299.564 357.88 293.085 356.326 286.446 354.733C279.599 353.09 272.581 351.407 269.182 347.531C248.553 353.212 238.159 357.97 227.075 376.461C214.336 420.175 228.45 447.329 266.122 459.638L266.123 459.677C266.381 470.124 266.527 475.994 277.617 476.356C277.334 477.294 277.057 478.213 276.784 479.113C271.89 495.298 268.861 505.315 274.561 509.214C273.723 511.124 272.85 512.98 272 514.79C268.313 522.633 265.041 529.595 266.797 536.156L269.78 542.51L320.777 558.045Z" fill="#21D81E"/>
<path d="M295.54 597.384L320.777 558.045L269.78 542.51C231.343 540.311 233.27 547.793 249.788 565.993C237.25 596.413 239.343 600.748 265.714 576.92C249.731 611.806 254.753 612.081 281.64 587.847C266.672 615.208 265.113 622.631 295.54 597.384Z" fill="#FEBA8D"/>
<path d="M320.777 558.045L295.54 597.384C265.113 622.631 266.672 615.208 281.64 587.847C254.753 612.081 249.731 611.806 265.714 576.92C239.343 600.748 237.25 596.413 249.788 565.993C233.27 547.793 231.343 540.311 269.78 542.51M266.123 459.677L266.122 459.638C228.45 447.329 214.336 420.175 227.075 376.461C238.159 357.97 248.553 353.212 269.182 347.531C272.581 351.407 279.599 353.09 286.446 354.733C293.085 356.326 299.564 357.88 302.428 361.358C372.744 446.724 379.143 492.769 324.243 556.418L320.777 558.045M320.777 558.045L269.78 542.51M266.122 459.638C266.122 459.651 266.122 459.664 266.123 459.677C266.381 470.124 266.527 475.994 277.617 476.356C277.334 477.294 277.057 478.213 276.784 479.113C271.89 495.298 268.861 505.315 274.561 509.214C273.723 511.124 272.85 512.98 272 514.79C268.313 522.633 265.041 529.595 266.797 536.156L269.78 542.51" stroke="black"/>
<path d="M118.957 745.866C193.426 751.911 235.478 752.763 311.105 749.024V724.286C265.737 729.9 237.195 714.993 220.537 700.382C204.05 698.246 190.647 697.845 179.66 699.977C140.543 710.761 126.184 718.537 118.957 745.866Z" fill="#5C3828" stroke="black"/>
<path d="M142.505 546.313C189.626 512.96 219.379 505.93 282.618 528.982C319.057 571.619 311.646 592.543 282.618 607.619C293.864 624.326 295.417 633.902 293.313 651.197C306.94 666.299 309.134 675.732 303.864 694.186C315.845 704.819 317.318 711.892 311.732 726.243C275.981 726.226 263.25 720.688 231.977 707.081L231.689 706.956C215.28 700.266 220.075 699.314 199.594 698.209C184.454 694.778 183.739 691.107 193.528 682.07C169.678 676.781 168.808 665.981 177.766 640.132C155.293 604.873 145.815 584.61 142.505 546.313Z" fill="#81793B"/>
<path d="M231.977 707.081L231.689 706.956C215.28 700.266 220.075 699.314 199.594 698.209C184.454 694.778 183.739 691.107 193.528 682.07C169.678 676.781 168.808 665.981 177.766 640.132C155.293 604.873 145.815 584.61 142.505 546.313C189.626 512.96 219.379 505.93 282.618 528.982C319.057 571.619 311.646 592.543 282.618 607.619C293.864 624.326 295.417 633.902 293.313 651.197C306.94 666.299 309.134 675.732 303.864 694.186C315.845 704.819 317.318 711.892 311.732 726.243C275.981 726.226 263.25 720.688 231.977 707.081C231.881 707.04 231.785 706.998 231.689 706.956" stroke="black"/>
<path d="M137.172 525.421C153.503 451.376 155.578 421.741 207.172 352.421C240.202 335.332 258.605 330.1 291.172 330.421C295.592 327.341 292.005 333.13 304.26 330.421C316.059 333.806 323.941 352.066 330.582 372.514C351.503 433.296 313.843 483.662 310.172 548.421C232.007 513.883 213.216 514.618 162.283 536.171C145.523 562.258 139.696 549.523 137.172 525.421Z" fill="#1DD71E" stroke="black"/>
<path d="M150.565 745.866C225.034 751.911 267.086 752.763 342.713 749.024V724.286C297.345 729.9 268.803 714.993 252.145 700.382C235.657 698.246 222.255 697.845 211.267 699.977C172.151 710.761 157.792 718.537 150.565 745.866Z" fill="#5C3828" stroke="black"/>
<path d="M174.113 546.313C221.234 512.96 250.987 505.93 314.225 528.982C340.256 571.589 333.479 592.515 314.225 607.619C325.472 624.326 327.025 633.902 324.921 651.197C338.547 666.299 340.742 675.732 335.472 694.186C347.453 704.819 348.925 711.892 343.34 726.243C307.589 726.226 294.858 720.688 263.585 707.081L263.297 706.956C246.888 700.266 251.682 699.314 231.201 698.209C216.062 694.778 215.347 691.107 225.136 682.07C201.286 676.781 200.416 665.981 209.374 640.132C186.901 604.873 177.423 584.61 174.113 546.313Z" fill="#81793B"/>
<path d="M263.585 707.081L263.297 706.956C246.888 700.266 251.682 699.314 231.201 698.209C216.062 694.778 215.347 691.107 225.136 682.07C201.286 676.781 200.416 665.981 209.374 640.132C186.901 604.873 177.423 584.61 174.113 546.313C221.234 512.96 250.987 505.93 314.225 528.982C340.256 571.589 333.479 592.515 314.225 607.619C325.472 624.326 327.025 633.902 324.921 651.197C338.547 666.299 340.742 675.732 335.472 694.186C347.453 704.819 348.925 711.892 343.34 726.243C307.589 726.226 294.858 720.688 263.585 707.081C263.489 707.04 263.393 706.998 263.297 706.956" stroke="black"/>
<path fill-rule="evenodd" clip-rule="evenodd" d="M245.325 568.146H249.153C325.898 533.86 339.672 489.46 312.297 382.304C311.181 377.938 306.87 368.218 301.537 363.955C296.037 359.558 289.507 360.613 288.077 355.659C266.989 352.036 255.559 351.927 237.668 363.955C207.559 398.112 208.797 428.69 237.668 455.841L237.652 455.876C233.447 465.443 231.084 470.818 240.969 475.859C240.314 476.588 239.672 477.302 239.044 478.001C227.736 490.572 220.737 498.352 224.24 504.304C222.67 505.676 221.091 506.986 219.552 508.263C212.882 513.796 206.961 518.708 205.763 525.393V532.412L245.325 568.146Z" fill="#21D81E"/>
<path d="M205.763 593.031L245.325 568.146L205.763 532.412C171.904 514.088 170.469 521.68 177.686 545.174C153.41 567.383 153.463 572.197 187.46 561.833C158.167 586.621 162.597 589.004 197.233 578.493C172.057 596.9 167.491 602.956 205.763 593.031Z" fill="#FEBA8D"/>
<path d="M245.325 568.146L205.763 593.031C167.491 602.956 172.057 596.9 197.233 578.493C162.597 589.004 158.167 586.621 187.46 561.833C153.463 572.197 153.41 567.383 177.686 545.174C170.469 521.68 171.904 514.088 205.763 532.412M237.652 455.876L237.668 455.841C208.797 428.69 207.559 398.112 237.668 363.955C255.559 351.927 266.989 352.036 288.077 355.659C289.507 360.613 296.037 359.558 301.537 363.955C306.87 368.218 311.181 377.938 312.297 382.304C339.672 489.46 325.898 533.86 249.153 568.146H245.325M245.325 568.146L205.763 532.412M237.668 455.841C237.662 455.852 237.657 455.864 237.652 455.876C233.447 465.443 231.084 470.818 240.969 475.859C240.314 476.588 239.672 477.302 239.044 478.001C227.736 490.572 220.737 498.352 224.24 504.304C222.67 505.676 221.091 506.986 219.552 508.263C212.882 513.796 206.961 518.708 205.763 525.393V532.412" stroke="black"/>
<path d="M287.326 329.28L282.533 320.493C342.933 302.139 371.027 287.156 396.763 240.612C325.953 194.973 286.046 169.729 211.439 130.376C168.719 140.13 146.308 143.243 111.588 140.76C95.7919 152.01 91.5534 162.666 94.4133 191.485C75.2228 190.782 64.0437 197.366 59.9795 209.458C57.4736 215.697 58.2016 220.41 59.9795 226.684C63.0776 232.595 73.8913 238.37 91.6175 244.606C90.7941 256.037 91.4527 262.371 97.2092 273.363C125.49 310.331 149.682 323.97 211.439 332.475L214.955 349.186L252.178 341.389L287.326 329.28Z" fill="#FEBA8D" stroke="black"/>
<path d="M213.138 139.881C287.625 174.215 323.812 194.156 397.21 244.229C422.193 163.937 413.914 119.947 345.172 42.4212C338.079 38.1387 331.415 34.2721 325.047 30.7857C287.022 9.96974 259.532 2.70976 214.172 1.4212C172.572 -4.63223 151.173 18.9687 114.172 77.4212C45.5808 73.6595 18.5512 73.1085 9.17239 77.4212C31.552 85.3632 40.349 94.389 51.1724 116.421C58.7478 129.222 76.5132 145.391 103.746 147.221C128.138 148.861 158.048 145.613 213.138 139.881Z" fill="#E52226"/>
<path d="M51.1724 116.421C40.349 94.389 31.552 85.3632 9.17239 77.4212C1.47843 81.089 -0.799725 84.4689 1.17239 94.4212C5.16215 139.13 24.9885 162.559 94.4216 172.041C95.7783 161.031 98.0273 155.716 103.746 147.221C76.5132 145.391 58.7478 129.222 51.1724 116.421Z" fill="#7B0F13"/>
<path d="M292.085 15.1902C302.626 19.2508 313.337 24.3755 325.047 30.7857C320.787 0.20619 302.888 10.9066 292.085 15.1902Z" fill="#E52226"/>
<path d="M103.746 147.221C98.0273 155.716 95.7783 161.031 94.4216 172.041C24.9885 162.559 5.16215 139.13 1.17239 94.4212C-0.799725 84.4689 1.47843 81.089 9.17239 77.4212C18.5512 73.1085 45.5808 73.6595 114.172 77.4212C151.173 18.9687 172.572 -4.63223 214.172 1.4212C259.532 2.70976 287.022 9.96974 325.047 30.7857C331.415 34.2721 338.079 38.1387 345.172 42.4212C413.914 119.947 422.193 163.937 397.21 244.229C323.812 194.156 287.625 174.215 213.138 139.881C158.048 145.613 128.138 148.861 103.746 147.221C76.5132 145.391 58.7478 129.222 51.1724 116.421C40.349 94.389 31.552 85.3632 9.17239 77.4212M292.085 18.2447V15.1902C302.888 10.9066 320.787 0.20619 325.047 30.7857M325.047 30.7857C313.337 24.3755 302.626 19.2508 292.085 15.1902" stroke="black"/>
<path d="M345.055 216.32C345.055 264.371 303.854 303.324 253.03 303.324C202.206 303.324 161.005 264.371 161.005 216.32C161.005 168.269 202.206 129.316 253.03 129.316C303.854 129.316 345.055 168.269 345.055 216.32ZM180.367 216.32C180.367 242.455 195.803 265.181 218.526 276.794C228.791 282.04 240.542 285.019 253.03 285.019C293.16 285.019 324.449 257.686 324.449 219.745C324.449 181.803 293.16 147.621 253.03 147.621C231.426 147.621 212.024 156.535 198.715 170.685C187.301 182.819 180.367 198.804 180.367 216.32Z" fill="#1E1E1E"/>
<path d="M300.839 217.192C300.839 252.433 273.699 281.002 240.22 281.002C232.576 281.002 225.262 279.512 218.526 276.794C195.762 267.608 179.601 244.387 179.601 217.192C179.601 198.855 186.949 182.324 198.715 170.685C209.561 159.955 224.161 153.382 240.22 153.382C273.699 153.382 300.839 181.951 300.839 217.192Z" fill="#E4433B"/>
<path d="M196.535 233.856H210.298V213.467C216.011 232.357 220.196 230.181 228.648 213.467L225.589 237.424H239.352L241.9 186.961H228.648L218.453 204.292L212.846 184.413H200.613L196.535 233.856Z" fill="#FCE412"/>
<path fill-rule="evenodd" clip-rule="evenodd" d="M273.503 237.424C281.519 231.606 281.096 226.784 273.503 216.015C280.533 211.405 280.649 207.104 273.503 196.136C263.432 190.817 257.208 189.826 245.843 188.977L241.9 237.424C257.675 241.058 264.804 241.28 273.503 237.424ZM257.364 202.485V209.504H264.251C266.221 208.026 265.717 206.969 265.178 205.133C262.314 203.325 260.568 202.892 257.364 202.485ZM256.04 226.984V220.098H262.397C265.303 222.964 265.503 224.432 265.178 226.984H256.04Z" fill="#FCE412"/>
<path d="M241.9 186.961L239.352 237.424H241.9L245.843 188.977L241.9 186.961Z" fill="black"/>
<path d="M218.526 276.794C228.791 282.04 240.542 285.019 253.03 285.019C293.16 285.019 324.449 257.686 324.449 219.745C324.449 181.803 293.16 147.621 253.03 147.621C231.426 147.621 212.024 156.535 198.715 170.685C209.561 159.955 224.161 153.382 240.22 153.382C273.699 153.382 300.839 181.951 300.839 217.192C300.839 252.433 273.699 281.002 240.22 281.002C232.576 281.002 225.262 279.512 218.526 276.794Z" fill="#1E1E1E"/>
<path d="M245.843 188.977L241.9 186.961H228.648L218.453 204.292L212.846 184.413H200.613L196.535 233.856H210.298V213.467C216.011 232.357 220.196 230.181 228.648 213.467L225.589 237.424H239.352M241.9 186.961L239.352 237.424M239.352 237.424H241.9M245.843 188.977C257.208 189.826 263.432 190.817 273.503 196.136C280.649 207.104 280.533 211.405 273.503 216.015C281.096 226.784 281.519 231.606 273.503 237.424C264.804 241.28 257.675 241.058 241.9 237.424M245.843 188.977L241.9 237.424M218.526 276.794C228.791 282.04 240.542 285.019 253.03 285.019C293.16 285.019 324.449 257.686 324.449 219.745C324.449 181.803 293.16 147.621 253.03 147.621C231.426 147.621 212.024 156.535 198.715 170.685M218.526 276.794C225.262 279.512 232.576 281.002 240.22 281.002C273.699 281.002 300.839 252.433 300.839 217.192C300.839 181.951 273.699 153.382 240.22 153.382C224.161 153.382 209.561 159.955 198.715 170.685M218.526 276.794C195.762 267.608 179.601 244.387 179.601 217.192C179.601 198.855 186.949 182.324 198.715 170.685M218.526 276.794C195.803 265.181 180.367 242.455 180.367 216.32C180.367 198.804 187.301 182.819 198.715 170.685M345.055 216.32C345.055 264.371 303.854 303.324 253.03 303.324C202.206 303.324 161.005 264.371 161.005 216.32C161.005 168.269 202.206 129.316 253.03 129.316C303.854 129.316 345.055 168.269 345.055 216.32ZM257.364 209.504V202.485C260.568 202.892 262.314 203.325 265.178 205.133C265.717 206.969 266.221 208.026 264.251 209.504H257.364ZM256.04 220.098V226.984H265.178C265.503 224.432 265.303 222.964 262.397 220.098H256.04Z" stroke="black"/>
<path d="M272.656 150.203C274.092 150.707 277.071 151.791 277.071 151.791L290.49 134.829L281.206 130.021L272.656 150.203Z" fill="#606368"/>
<path d="M298.479 237.933C303.929 241.419 307.18 242.926 316.319 237.933C318.82 198.037 310.716 166.455 277.071 151.791C277.071 151.791 274.092 150.707 272.656 150.203C253.819 143.594 240.969 141.318 229.103 143.315C221.829 144.539 214.925 147.369 207.239 151.791C182.771 170.324 173.682 183.968 172.069 218.564C176.448 220.83 178.903 220.474 183.283 218.564C182.628 188.611 189.103 176.916 207.239 160.966C235.034 147.445 250.321 148.515 277.071 165.553C297.231 187.975 302.641 203.465 298.479 237.933Z" fill="#606368"/>
<path d="M230.144 122.229L229.103 143.315C240.969 141.318 253.819 143.594 272.656 150.203L281.206 130.021C260.974 121.994 250.174 121.042 230.144 122.229Z" fill="#CACCCD"/>
<path d="M281.206 130.021L290.49 134.829L299.756 113.1C297.997 111.019 296.507 109.604 294.967 108.604C293.603 107.719 292.171 106.031 290.49 104.913C289.715 104.397 288.887 104.003 287.988 103.863L281.206 130.021Z" fill="#640804"/>
<path d="M230.144 122.229C250.174 121.042 260.974 121.994 281.206 130.021L287.988 103.863C268.065 97.828 256.324 99.1064 236.946 99.9241C235.794 99.9727 234.614 100.028 233.405 100.09C229.531 108.736 228.82 113.584 230.144 122.229Z" fill="#C82520"/>
<path d="M236.946 99.9241C256.324 99.1064 268.065 97.828 287.988 103.863C288.887 104.003 289.715 104.397 290.49 104.913C298.46 88.6649 304.193 80.0051 318.15 65.8851C329.3 56.713 335.579 52.3021 346.863 46.6264C355.855 46.5639 361.618 47.3057 368.223 49.9617L369.448 45.5759L359.819 41.7242C331.758 33.2181 315.208 31.3349 283.485 35.7715C254.672 56.598 247.235 71.7378 236.946 99.9241Z" fill="#454449"/>
<path d="M405.825 108.604C404.362 81.7502 401.123 68.3784 379.078 49.4277L369.448 45.5759L368.223 49.9617C370.415 50.8432 372.7 51.9356 375.226 53.2794C385.734 60.4085 390.02 65.1577 394.835 74.9892C404.388 92.0396 397.941 103.333 394.835 113.1L405.825 108.604Z" fill="black"/>
<path d="M392.111 106.334C393.7 107.842 393.06 111.442 394.835 113.1C397.941 103.333 404.388 92.0396 394.835 74.9892C390.02 65.1577 385.734 60.4085 375.226 53.2794C372.7 51.9356 370.415 50.8432 368.223 49.9617C361.618 47.3057 355.855 46.5639 346.863 46.6264C335.579 52.3021 329.3 56.713 318.15 65.8851C304.193 80.0051 298.46 88.6649 290.49 104.913C292.171 106.031 293.603 107.719 294.967 108.604C306.993 91.1049 313.997 81.5087 328.305 65.8851C336.496 58.9537 341.096 56.1161 349.314 53.2794C362.441 49.7757 369.858 51.3446 383.28 65.8851C393.33 79.966 392.16 90.6641 392.111 106.334Z" fill="#454449"/>
<path d="M339.16 71.8378C352.004 66.8553 358.199 67.4162 368.223 71.8378C377.326 84.4006 379.805 94.6438 392.111 106.334C392.16 90.6641 393.33 79.966 383.28 65.8851C369.858 51.3446 362.441 49.7757 349.314 53.2794C341.096 56.1161 336.496 58.9537 328.305 65.8851C313.997 81.5087 306.993 91.1049 294.967 108.604C296.507 109.604 297.997 111.019 299.756 113.1C309.312 92.4101 317.293 82.8686 339.16 71.8378Z" fill="#1E1E1E"/>
<path d="M405.825 108.604L394.835 113.1L399.872 120.258L402.173 126.473C401.902 121.515 404.393 113.642 405.825 108.604Z" fill="black"/>
<path d="M272.656 150.203C253.819 143.594 240.969 141.318 229.103 143.315C221.829 144.539 214.925 147.369 207.239 151.791C182.771 170.324 173.682 183.968 172.069 218.564C176.448 220.83 178.903 220.474 183.283 218.564C182.628 188.611 189.103 176.916 207.239 160.966C235.034 147.445 250.321 148.515 277.071 165.553C297.231 187.975 302.641 203.465 298.479 237.933C303.929 241.419 307.18 242.926 316.319 237.933C318.82 198.037 310.716 166.455 277.071 151.791M277.071 151.791C277.071 151.791 274.092 150.707 272.656 150.203M299.756 113.1L290.49 134.829L277.071 151.791M229.103 143.315L230.144 122.229M230.144 122.229C250.174 121.042 260.974 121.994 281.206 130.021M230.144 122.229C228.82 113.584 229.531 108.736 233.405 100.09C234.614 100.028 235.794 99.9727 236.946 99.9241M281.206 130.021L272.656 150.203M281.206 130.021L290.49 134.829M281.206 130.021L287.988 103.863M394.835 113.1C393.06 111.442 393.7 107.842 392.111 106.334C379.805 94.6438 377.326 84.4006 368.223 71.8378C358.199 67.4162 352.004 66.8553 339.16 71.8378C317.293 82.8686 309.312 92.4101 299.756 113.1M290.49 104.913C292.171 106.031 293.603 107.719 294.967 108.604C296.507 109.604 297.997 111.019 299.756 113.1M287.988 103.863C268.065 97.828 256.324 99.1064 236.946 99.9241M287.988 103.863C288.887 104.003 289.715 104.397 290.49 104.913M236.946 99.9241C247.235 71.7378 254.672 56.598 283.485 35.7715C315.208 31.3349 331.758 33.2181 359.819 41.7242L369.448 45.5759M394.835 113.1L399.872 120.258L402.173 126.473C401.902 121.515 404.393 113.642 405.825 108.604C404.362 81.7502 401.123 68.3784 379.078 49.4277L369.448 45.5759M405.825 108.604L394.835 113.1M394.835 113.1C397.941 103.333 404.388 92.0396 394.835 74.9892C390.02 65.1577 385.734 60.4085 375.226 53.2794C372.7 51.9356 370.415 50.8432 368.223 49.9617M392.111 106.334C392.16 90.6641 393.33 79.966 383.28 65.8851C369.858 51.3446 362.441 49.7757 349.314 53.2794C341.096 56.1161 336.496 58.9537 328.305 65.8851C313.997 81.5087 306.993 91.1049 294.967 108.604M290.49 104.913C298.46 88.6649 304.193 80.0051 318.15 65.8851C329.3 56.713 335.579 52.3021 346.863 46.6264C355.855 46.5639 361.618 47.3057 368.223 49.9617M369.448 45.5759L368.223 49.9617" stroke="black"/>
<path d="M147.328 231.336C114.035 231.277 101.629 235.758 100.016 258.549" stroke="black" stroke-width="3"/>
<path d="M111.302 169.773C123.377 156.829 130.211 157.244 142.581 180.199L111.302 169.773Z" fill="white" stroke="black" stroke-width="3"/>
</svg>
