<svg width="562" height="583" viewBox="0 0 562 583" fill="none" xmlns="http://www.w3.org/2000/svg">
<path d="M415.801 107.376C443.315 97.3786 470.214 123.565 460.959 151.337L433.21 234.602C425.049 259.093 394.088 266.622 375.591 248.615L320.849 195.323C302.352 177.316 309.048 146.164 333.311 137.349L415.801 107.376Z" fill="#D9D9D9"/>
<path d="M145.817 475.054C118.303 485.051 91.4045 458.865 100.66 431.093L128.408 347.828C136.569 323.337 167.53 315.807 186.027 333.814L240.769 387.107C259.266 405.114 252.57 436.265 228.307 445.081L145.817 475.054Z" fill="#D9D9D9"/>
<rect x="146.166" y="395.734" width="330.264" height="47.1367" rx="23.5684" transform="rotate(-45.7689 146.166 395.734)" fill="#D9D9D9"/>
<path d="M452.329 441.55C459.917 469.823 431.51 494.365 404.639 482.751L324.076 447.929C300.38 437.687 295.546 406.192 315.081 389.316L372.893 339.371C392.427 322.495 422.886 331.851 429.578 356.783L452.329 441.55Z" fill="#D9D9D9"/>
<path d="M109.289 140.88C101.701 112.607 130.108 88.0651 156.979 99.6796L237.543 134.501C261.239 144.743 266.072 176.238 246.537 193.114L188.725 243.059C169.191 259.935 138.732 250.579 132.041 225.647L109.289 140.88Z" fill="#D9D9D9"/>
<rect x="188.284" y="148.064" width="330.264" height="47.1367" rx="23.5684" transform="rotate(49.1756 188.284 148.064)" fill="#D9D9D9"/>
</svg>
