<svg width="579" height="529" viewBox="0 0 579 529" fill="none" xmlns="http://www.w3.org/2000/svg">
<path d="M414.835 389.165C438.168 402.637 438.168 436.316 414.835 449.787L357.031 483.16C333.698 496.631 304.531 479.792 304.531 452.849L304.531 386.104C304.531 359.161 333.698 342.321 357.031 355.793L414.835 389.165Z" fill="#D9D9D9"/>
<rect x="82.2638" y="395.908" width="276.535" height="47.1367" rx="23.5684" fill="#D9D9D9"/>
<path d="M332.571 78.2245C355.904 91.696 355.904 125.375 332.571 138.846L274.768 172.219C251.434 185.69 222.268 168.851 222.268 141.908L222.268 75.1628C222.268 48.2198 251.434 31.3804 274.768 44.8519L332.571 78.2245Z" fill="#D9D9D9"/>
<rect y="84.967" width="276.535" height="47.1367" rx="23.5684" fill="#D9D9D9"/>
<path d="M361.097 233.695C384.43 247.166 384.43 280.845 361.097 294.317L303.294 327.689C279.96 341.161 250.793 324.322 250.793 297.379L250.793 230.633C250.794 203.69 279.96 186.851 303.293 200.322L361.097 233.695Z" fill="#D9D9D9"/>
<rect x="28.5259" y="240.438" width="276.535" height="47.1367" rx="23.5684" fill="#D9D9D9"/>
<path d="M452.948 62.3795V155.47H441.675V74.1977H441.13L418.403 89.2886V77.8341L441.675 62.3795H452.948Z" fill="white"/>
<path d="M448.747 310.941V302.759L479.474 269.123C483.08 265.183 486.05 261.759 488.383 258.85C490.716 255.911 492.444 253.153 493.565 250.577C494.716 247.971 495.292 245.244 495.292 242.395C495.292 239.123 494.504 236.289 492.929 233.895C491.383 231.502 489.262 229.653 486.565 228.35C483.868 227.047 480.838 226.395 477.474 226.395C473.898 226.395 470.777 227.138 468.11 228.623C465.474 230.077 463.429 232.123 461.974 234.759C460.55 237.395 459.838 240.486 459.838 244.032H449.11C449.11 238.577 450.368 233.789 452.883 229.668C455.398 225.547 458.823 222.335 463.156 220.032C467.52 217.729 472.413 216.577 477.838 216.577C483.292 216.577 488.126 217.729 492.338 220.032C496.55 222.335 499.853 225.441 502.247 229.35C504.641 233.259 505.838 237.608 505.838 242.395C505.838 245.82 505.216 249.168 503.974 252.441C502.762 255.683 500.641 259.305 497.61 263.305C494.61 267.274 490.444 272.123 485.11 277.85L464.201 300.214V300.941H507.474V310.941H448.747Z" fill="white"/>
<path d="M533.939 470.641C527.939 470.641 522.591 469.611 517.894 467.55C513.227 465.49 509.515 462.626 506.757 458.96C504.03 455.263 502.545 450.975 502.303 446.096H513.757C514 449.096 515.03 451.687 516.848 453.869C518.666 456.02 521.045 457.687 523.985 458.869C526.924 460.05 530.182 460.641 533.757 460.641C537.757 460.641 541.303 459.944 544.394 458.55C547.485 457.157 549.909 455.217 551.666 452.732C553.424 450.247 554.303 447.369 554.303 444.096C554.303 440.672 553.454 437.657 551.757 435.05C550.06 432.414 547.576 430.354 544.303 428.869C541.03 427.384 537.03 426.641 532.303 426.641H524.848V416.641H532.303C536 416.641 539.242 415.975 542.03 414.641C544.848 413.308 547.045 411.429 548.621 409.005C550.227 406.581 551.03 403.732 551.03 400.46C551.03 397.308 550.333 394.566 548.939 392.232C547.545 389.899 545.576 388.081 543.03 386.778C540.515 385.475 537.545 384.823 534.121 384.823C530.909 384.823 527.879 385.414 525.03 386.596C522.212 387.747 519.909 389.429 518.121 391.641C516.333 393.823 515.363 396.46 515.212 399.55H504.303C504.485 394.672 505.954 390.399 508.712 386.732C511.469 383.035 515.076 380.157 519.53 378.096C524.015 376.035 528.939 375.005 534.303 375.005C540.06 375.005 545 376.172 549.121 378.505C553.242 380.808 556.409 383.853 558.621 387.641C560.833 391.429 561.939 395.52 561.939 399.914C561.939 405.157 560.56 409.626 557.803 413.323C555.076 417.02 551.363 419.581 546.666 421.005V421.732C552.545 422.702 557.136 425.202 560.439 429.232C563.742 433.232 565.394 438.187 565.394 444.096C565.394 449.157 564.015 453.702 561.257 457.732C558.53 461.732 554.803 464.884 550.076 467.187C545.348 469.49 539.969 470.641 533.939 470.641Z" fill="white"/>
</svg>
